<svg width="90" height="90" viewBox="0 0 90 90" fill="none" xmlns="http://www.w3.org/2000/svg">
<path d="M41.25 61.875C42.4187 61.875 43.3984 61.4797 44.1891 60.6891C44.9797 59.8984 45.375 58.9187 45.375 57.75C45.375 56.5813 44.9797 55.6016 44.1891 54.8109C43.3984 54.0203 42.4187 53.625 41.25 53.625C40.0813 53.625 39.1016 54.0203 38.3109 54.8109C37.5203 55.6016 37.125 56.5813 37.125 57.75C37.125 58.9187 37.5203 59.8984 38.3109 60.6891C39.1016 61.4797 40.0813 61.875 41.25 61.875ZM37.125 45.375H45.375V20.625H37.125V45.375ZM41.25 82.5C35.5438 82.5 30.1813 81.4172 25.1625 79.2516C20.1438 77.0859 15.7781 74.1469 12.0656 70.4344C8.35313 66.7219 5.41406 62.3562 3.24844 57.3375C1.08281 52.3187 0 46.9562 0 41.25C0 35.5438 1.08281 30.1813 3.24844 25.1625C5.41406 20.1438 8.35313 15.7781 12.0656 12.0656C15.7781 8.35313 20.1438 5.41406 25.1625 3.24844C30.1813 1.08281 35.5438 0 41.25 0C46.9562 0 52.3187 1.08281 57.3375 3.24844C62.3562 5.41406 66.7219 8.35313 70.4344 12.0656C74.1469 15.7781 77.0859 20.1438 79.2516 25.1625C81.4172 30.1813 82.5 35.5438 82.5 41.25C82.5 46.9562 81.4172 52.3187 79.2516 57.3375C77.0859 62.3562 74.1469 66.7219 70.4344 70.4344C66.7219 74.1469 62.3562 77.0859 57.3375 79.2516C52.3187 81.4172 46.9562 82.5 41.25 82.5ZM41.25 74.25C50.4625 74.25 58.2656 71.0531 64.6594 64.6594C71.0531 58.2656 74.25 50.4625 74.25 41.25C74.25 32.0375 71.0531 24.2344 64.6594 17.8406C58.2656 11.4469 50.4625 8.25 41.25 8.25C32.0375 8.25 24.2344 11.4469 17.8406 17.8406C11.4469 24.2344 8.25 32.0375 8.25 41.25C8.25 50.4625 11.4469 58.2656 17.8406 64.6594C24.2344 71.0531 32.0375 74.25 41.25 74.25Z" fill="#FB4F4F"/>
<path d="M48.25 68.875C49.4187 68.875 50.3984 68.4797 51.1891 67.6891C51.9797 66.8984 52.375 65.9187 52.375 64.75C52.375 63.5813 51.9797 62.6016 51.1891 61.8109C50.3984 61.0203 49.4187 60.625 48.25 60.625C47.0813 60.625 46.1016 61.0203 45.3109 61.8109C44.5203 62.6016 44.125 63.5813 44.125 64.75C44.125 65.9187 44.5203 66.8984 45.3109 67.6891C46.1016 68.4797 47.0813 68.875 48.25 68.875ZM44.125 52.375H52.375V27.625H44.125V52.375ZM48.25 89.5C42.5438 89.5 37.1813 88.4172 32.1625 86.2516C27.1438 84.0859 22.7781 81.1469 19.0656 77.4344C15.3531 73.7219 12.4141 69.3562 10.2484 64.3375C8.08281 59.3187 7 53.9562 7 48.25C7 42.5438 8.08281 37.1813 10.2484 32.1625C12.4141 27.1438 15.3531 22.7781 19.0656 19.0656C22.7781 15.3531 27.1438 12.4141 32.1625 10.2484C37.1813 8.08281 42.5438 7 48.25 7C53.9562 7 59.3187 8.08281 64.3375 10.2484C69.3562 12.4141 73.7219 15.3531 77.4344 19.0656C81.1469 22.7781 84.0859 27.1438 86.2516 32.1625C88.4172 37.1813 89.5 42.5438 89.5 48.25C89.5 53.9562 88.4172 59.3187 86.2516 64.3375C84.0859 69.3562 81.1469 73.7219 77.4344 77.4344C73.7219 81.1469 69.3562 84.0859 64.3375 86.2516C59.3187 88.4172 53.9562 89.5 48.25 89.5ZM48.25 81.25C57.4625 81.25 65.2656 78.0531 71.6594 71.6594C78.0531 65.2656 81.25 57.4625 81.25 48.25C81.25 39.0375 78.0531 31.2344 71.6594 24.8406C65.2656 18.4469 57.4625 15.25 48.25 15.25C39.0375 15.25 31.2344 18.4469 24.8406 24.8406C18.4469 31.2344 15.25 39.0375 15.25 48.25C15.25 57.4625 18.4469 65.2656 24.8406 71.6594C31.2344 78.0531 39.0375 81.25 48.25 81.25Z" fill="white"/>
</svg>
