<svg width="40" height="44" viewBox="0 0 40 44" fill="none" xmlns="http://www.w3.org/2000/svg">
  <path
    d="M22.1049 1.30494C23.2241 2.52013 19.8125 8.20369 13.9665 13.4373C8.1206 18.67 2.05376 21.4715 0.934599 20.2564C0.926003 20.247 0.917408 20.2369 0.908812 20.2267C-0.0960243 18.948 5.37083 13.1051 9.91452 9.03838C14.2794 5.13099 20.3823 0.543972 21.9132 1.1736C21.9227 1.17783 21.9322 1.18207 21.9416 1.18715C21.9803 1.20664 22.0147 1.22783 22.0439 1.24986C22.0534 1.25749 22.0628 1.26512 22.0723 1.27274H22.0731C22.0843 1.28376 22.0946 1.29393 22.1049 1.30494Z"
    fill="#05467D" />
  <path
    d="M1.80127 20.8292C1.34484 20.8292 0.962333 20.7208 0.715636 20.4522C0.703602 20.4394 0.691569 20.4242 0.679535 20.4098C0.315077 19.9462 0.174109 18.937 3.10438 15.4889C4.79773 13.4966 7.20796 11.0654 9.71618 8.82064C10.1219 8.4571 19.6794 -0.0635806 22.0286 0.902464C22.045 0.909243 22.0596 0.916022 22.0742 0.923649C22.1344 0.954156 22.1834 0.984662 22.2255 1.01686C22.2384 1.02619 22.2504 1.03635 22.2633 1.04737L22.29 1.07195C22.3029 1.08381 22.314 1.09567 22.3261 1.10838C23.2234 2.08375 21.8172 4.60563 20.8992 6.02165C19.2995 8.4893 16.9091 11.1993 14.167 13.6534C11.4259 16.1075 8.45949 18.193 5.81374 19.5251C4.71349 20.0793 3.00209 20.8292 1.80127 20.8292ZM21.5499 1.40243C20.0302 1.40243 15.1977 4.70393 10.115 9.25366C7.62571 11.4823 5.23611 13.8915 3.55909 15.8651C0.739704 19.1827 1.05259 19.9302 1.1437 20.0462C1.1437 20.0462 1.14886 20.053 1.15402 20.0581C1.51676 20.4522 3.01412 20.2776 5.54383 19.0039C8.14317 17.6947 11.064 15.6406 13.7682 13.2204C16.4724 10.8002 18.8268 8.1317 20.3989 5.70642C21.9289 3.34723 22.2478 1.89478 21.886 1.50158C21.886 1.50158 21.8791 1.49395 21.8748 1.49056L21.8653 1.48209C21.8542 1.47362 21.8352 1.46091 21.806 1.44565C21.7355 1.41684 21.6504 1.40243 21.5507 1.40243H21.5499Z"
    fill="#FFF6E9" />
  <path
    d="M39.4499 7.2614L36.836 36.9961C36.7793 37.6376 36.2068 38.1579 35.5561 38.1579H16.8175C12.2506 38.1579 7.682 39.6637 3.83887 42.4356L6.93074 7.2614C6.98747 6.61907 7.5608 6.09961 8.21064 6.09961H38.3729C39.0236 6.09961 39.5058 6.61907 39.4491 7.2614H39.4499Z"
    fill="#1062AD" />
  <path
    d="M3.49268 43.0312L6.63698 7.26215C6.70746 6.46135 7.4252 5.81055 8.2375 5.81055H38.3998C39.2121 5.81055 39.8155 6.4622 39.745 7.26215L37.1311 36.9968C37.0606 37.7976 36.3428 38.4484 35.5305 38.4484H16.7919C12.3119 38.4484 7.76903 39.9458 4.00068 42.6651L3.49268 43.0321V43.0312ZM8.18592 6.39102C7.69855 6.39102 7.2679 6.78167 7.22578 7.26215L4.18549 41.8516C7.96157 39.2789 12.4322 37.868 16.8435 37.868H35.5821C36.0695 37.868 36.5001 37.4773 36.5422 36.9968L39.1562 7.26215C39.1983 6.78167 38.8364 6.39102 38.3491 6.39102H8.18678H8.18592Z"
    fill="#FFF6E9" />
  <path
    d="M21.9179 1.1789C20.387 0.549277 14.2841 5.13545 9.9192 9.04369C5.37552 13.1112 -0.0913383 18.9541 0.913498 20.232C-0.612237 18.3533 4.28989 3.25759 4.28989 3.25759C4.32169 3.09828 4.45492 2.97879 4.6191 2.96269C4.6191 2.96269 19.6959 0.123879 21.9179 1.17805V1.1789Z"
    fill="#E92429" />
  <path
    d="M0.682125 20.4136C0.423395 20.095 -0.36397 19.1255 1.74197 10.9667C2.73564 7.11776 3.92012 3.43832 4.00264 3.18155C4.06539 2.90784 4.29232 2.70616 4.57511 2.67226C5.34271 2.5282 19.7757 -0.163163 22.0467 0.913892L21.8035 1.44776C20.6662 0.979142 15.5338 4.41114 10.1185 9.25831C7.62916 11.487 5.23956 13.8962 3.56254 15.8698C0.743154 19.1874 1.05604 19.9348 1.14715 20.0509L0.681266 20.4127L0.682125 20.4136ZM20.0714 1.23252C16.3074 1.23252 8.10708 2.60362 4.67568 3.25019L4.64904 3.25358C4.61551 3.25697 4.58887 3.2807 4.58199 3.31375L4.57339 3.3468C3.04938 8.03889 1.05518 15.2808 0.915928 18.5222C1.29414 17.8078 1.96976 16.8358 3.10869 15.4952C4.80204 13.503 7.21141 11.0718 9.72049 8.82614C10.0514 8.53039 16.4655 2.81208 20.0972 1.23252H20.0723H20.0714Z"
    fill="#FFF6E9" />
  <path
    d="M28.0183 21.1154H24.0986C24.0273 21.1154 23.9886 21.1968 24.0342 21.251C25.0373 22.4518 23.8304 31.2428 23.8304 31.2428C23.7866 31.7411 23.9843 32.1292 24.4235 32.4054C24.8628 32.6825 25.5848 32.8207 26.5931 32.8207H27.7776C28.8125 32.8207 29.5672 32.6825 30.04 32.4054C30.5127 32.1292 30.7706 31.7411 30.8144 31.2428L31.3697 24.8542C31.5485 22.789 30.0486 21.1154 28.0174 21.1154H28.0183ZM22.9459 21.1095C21.0231 20.9985 19.6314 19.3706 19.8034 17.3783L20.1816 13.0193C20.2246 12.521 20.0406 12.1337 19.6289 11.8558C19.2163 11.5795 18.5209 11.4414 17.541 11.4414H16.2336C15.2262 11.4414 14.4792 11.5795 13.9918 11.8558C13.5044 12.1337 13.2397 12.521 13.1967 13.0193L11.6134 31.2428C11.5696 31.7411 11.7673 32.1292 12.2065 32.4054C12.6457 32.6825 13.3686 32.8207 14.376 32.8207H15.5614C16.5955 32.8207 17.3502 32.6825 17.8238 32.4054C18.2965 32.1292 18.5553 31.7411 18.5982 31.2428L19.1166 25.2804C19.1458 24.9364 19.4449 24.6576 19.7836 24.6576H20.5572C21.7133 24.6576 22.6967 25.1999 23.2975 26.0482C23.3422 26.1117 23.4428 26.0863 23.4497 26.0092C23.9052 21.1095 22.982 21.112 22.9442 21.1095H22.9459Z"
    fill="#FFF6E9" />
  <path
    d="M30.6054 12.5419H27.5256C26.9041 12.5419 26.3566 13.0537 26.3015 13.6859L25.9388 17.8653C25.9345 17.9178 25.9723 17.9602 26.0239 17.9602H30.1344C30.7558 17.9602 31.3034 17.4484 31.3584 16.8162L31.63 13.685C31.685 13.0537 31.226 12.541 30.6046 12.541L30.6054 12.5419Z"
    fill="#FFF6E9" />
  <path
    d="M25.0792 24.0127H21.1595C21.0882 24.0127 21.0495 24.0941 21.0951 24.1483C22.0982 25.3491 20.8914 34.1401 20.8914 34.1401C20.8475 34.6384 21.0452 35.0265 21.4845 35.3028C21.9237 35.5799 22.6457 35.718 23.654 35.718H24.8385C25.8734 35.718 26.6281 35.5799 27.1009 35.3028C27.5736 35.0265 27.8315 34.6384 27.8754 34.1401L28.4306 27.7515C28.6094 25.6864 27.1095 24.0127 25.0783 24.0127H25.0792ZM20.006 24.006C18.0831 23.895 16.6915 22.2671 16.8634 20.2748L17.2416 15.9158C17.2846 15.4175 17.1007 15.0302 16.6889 14.7523C16.2763 14.476 15.5809 14.3379 14.601 14.3379H13.2936C12.2862 14.3379 11.5392 14.476 11.0519 14.7523C10.5645 15.0302 10.2998 15.4175 10.2568 15.9158L8.67345 34.1393C8.62961 34.6375 8.82731 35.0256 9.26655 35.3019C9.70579 35.579 10.4287 35.7171 11.4361 35.7171H12.6214C13.6555 35.7171 14.4102 35.579 14.8838 35.3019C15.3566 35.0256 15.6153 34.6375 15.6583 34.1393L16.1766 28.1769C16.2058 27.8329 16.505 27.5541 16.8436 27.5541H17.6173C18.7734 27.5541 19.7567 28.0964 20.3576 28.9447C20.4023 29.0082 20.5028 28.9828 20.5097 28.9057C20.9653 24.006 20.0421 24.0085 20.0043 24.006H20.006Z"
    fill="#05467D" />
  <path
    d="M27.6664 15.4383H24.5866C23.9651 15.4383 23.4176 15.9502 23.3626 16.5823L22.9998 20.7618C22.9955 20.8143 23.0334 20.8567 23.0849 20.8567H27.1954C27.8169 20.8567 28.3644 20.3448 28.4194 19.7127L28.691 16.5815C28.7461 15.9502 28.287 15.4375 27.6656 15.4375L27.6664 15.4383Z"
    fill="#05467D" />
  <path
    d="M28.0183 21.1154H24.0986C24.0273 21.1154 23.9886 21.1968 24.0342 21.251C25.0373 22.4518 23.8304 31.2428 23.8304 31.2428C23.7866 31.7411 23.9843 32.1292 24.4235 32.4054C24.8628 32.6825 25.5848 32.8207 26.5931 32.8207H27.7776C28.8125 32.8207 29.5672 32.6825 30.04 32.4054C30.5127 32.1292 30.7706 31.7411 30.8144 31.2428L31.3697 24.8542C31.5485 22.789 30.0486 21.1154 28.0174 21.1154H28.0183ZM22.9459 21.1095C21.0231 20.9985 19.6314 19.3706 19.8034 17.3783L20.1816 13.0193C20.2246 12.521 20.0406 12.1337 19.6289 11.8558C19.2163 11.5795 18.5209 11.4414 17.541 11.4414H16.2336C15.2262 11.4414 14.4792 11.5795 13.9918 11.8558C13.5044 12.1337 13.2397 12.521 13.1967 13.0193L11.6134 31.2428C11.5696 31.7411 11.7673 32.1292 12.2065 32.4054C12.6457 32.6825 13.3686 32.8207 14.376 32.8207H15.5614C16.5955 32.8207 17.3502 32.6825 17.8238 32.4054C18.2965 32.1292 18.5553 31.7411 18.5982 31.2428L19.1166 25.2804C19.1458 24.9364 19.4449 24.6576 19.7836 24.6576H20.5572C21.7133 24.6576 22.6967 25.1999 23.2975 26.0482C23.3422 26.1117 23.4428 26.0863 23.4497 26.0092C23.9052 21.1095 22.982 21.112 22.9442 21.1095H22.9459Z"
    fill="#FFF6E9" />
  <path
    d="M30.6054 12.5419H27.5256C26.9041 12.5419 26.3566 13.0537 26.3015 13.6859L25.9388 17.8653C25.9345 17.9178 25.9723 17.9602 26.0239 17.9602H30.1344C30.7558 17.9602 31.3034 17.4484 31.3584 16.8162L31.63 13.685C31.685 13.0537 31.226 12.541 30.6046 12.541L30.6054 12.5419Z"
    fill="#FFF6E9" />
</svg>
