<svg width="21" height="20" viewBox="0 0 21 20" fill="none" xmlns="http://www.w3.org/2000/svg">
  <rect x="0.5" y="0.5" width="19.0161" height="19" rx="9.5" stroke="white" />
  <path fill-rule="evenodd" clip-rule="evenodd"
    d="M10.9428 10.0001L14.4714 6.47142C14.7321 6.21075 14.7321 5.78942 14.4714 5.52875C14.2108 5.26809 13.7894 5.26809 13.5288 5.52875L10.0001 9.05742L6.47142 5.52875C6.21075 5.26809 5.78942 5.26809 5.52875 5.52875C5.26809 5.78942 5.26809 6.21075 5.52875 6.47142L9.05742 10.0001L5.52875 13.5288C5.26809 13.7894 5.26809 14.2108 5.52875 14.4714C5.65875 14.6014 5.82942 14.6668 6.00009 14.6668C6.17075 14.6668 6.34142 14.6014 6.47142 14.4714L10.0001 10.9428L13.5288 14.4714C13.6588 14.6014 13.8294 14.6668 14.0001 14.6668C14.1708 14.6668 14.3414 14.6014 14.4714 14.4714C14.7321 14.2108 14.7321 13.7894 14.4714 13.5288L10.9428 10.0001Z"
    fill="white" />
</svg>
