<svg width="286" height="50" viewBox="0 0 286 50" fill="none" xmlns="http://www.w3.org/2000/svg">
  <path
    d="M46.2847 4.69194C47.9474 6.35459 47.987 9.0465 46.4035 10.7883L46.2847 10.9071L39.357 17.8348C36.7444 20.4475 32.5877 20.4871 29.9354 17.9931L29.777 17.8348L28.3519 16.4096L40.0696 4.69194C41.7322 3.02929 44.4241 2.98971 46.166 4.57319L46.2847 4.69194ZM39.3175 32.2048L46.2451 39.1325C47.9474 40.8348 47.9474 43.6454 46.2451 45.3476C44.5825 47.0103 41.8906 47.0499 40.1487 45.4664L40.03 45.3476L28.3124 33.6299L29.7375 32.2048C32.3501 29.5921 36.5067 29.5525 39.1591 32.0465L39.3175 32.2048ZM48.66 2.27715C45.691 -0.691863 40.8614 -0.771046 37.8131 2.1188L37.6549 2.27715L25.9371 13.9949L14.2194 2.27715C11.2504 -0.691863 6.42078 -0.771046 3.37259 2.1188L3.21424 2.27715C0.245228 5.24616 0.166054 10.0758 3.05589 13.124L3.21424 13.2823L14.932 25L3.21424 36.7178C0.166054 39.7659 0.166054 44.6746 3.21424 47.7229C6.18325 50.6919 11.0129 50.771 14.0611 47.8812L14.2194 47.7229L25.9371 36.0051L37.6549 47.7229C40.6239 50.6919 45.4535 50.771 48.5016 47.8812L48.66 47.7229C51.629 44.7539 51.7081 39.9242 48.8184 36.876L48.66 36.7178L41.7322 29.79C37.8131 25.8709 31.5189 25.8314 27.5601 29.5921L27.3622 29.79L11.8046 45.3476C10.1024 47.0499 7.29169 47.0499 5.58945 45.3476C3.9268 43.685 3.88721 40.9931 5.47069 39.2512L5.58945 39.1325L19.722 25L5.58945 10.9071C3.88721 9.20485 3.88721 6.39417 5.58945 4.69194C7.2521 3.02929 9.944 2.98971 11.6858 4.57319L11.8046 4.69194L27.3622 20.2496C31.2814 24.1686 37.5756 24.2083 41.5344 20.4475L41.7322 20.2496L48.66 13.3219C51.7081 10.2341 51.7081 5.32534 48.66 2.27715Z"
    fill="url(#paint0_linear_3_1970)" />
  <path
    d="M275.214 37.0741V28.4046L285.072 11.9761H281.548L273.592 25.1981L265.674 11.9761H261.874L271.731 28.3255V37.0741H275.214ZM249.799 26.3858H243.664V15.1035H249.799C252.096 15.1035 253.838 15.5785 255.026 16.5681C256.213 17.5183 256.847 18.9434 256.847 20.7248C256.847 22.5458 256.253 23.9313 255.026 24.921C253.838 25.9106 252.096 26.3858 249.799 26.3858ZM243.506 37.0741V29.4339H249.721C250.117 29.4339 250.632 29.3943 251.304 29.3548L256.728 37.0741H260.647L254.708 28.6421C256.491 28.0088 257.836 27.0191 258.786 25.6731C259.737 24.3271 260.212 22.6645 260.212 20.7248C260.212 17.9933 259.261 15.8556 257.401 14.3118C255.541 12.7679 252.967 11.9761 249.721 11.9761H239.943V37.0741H243.506ZM220.822 34.5406C219.002 34.5406 217.339 34.1051 215.834 33.2738C214.331 32.4425 213.182 31.2549 212.351 29.7901C211.519 28.3255 211.084 26.6628 211.084 24.8023C211.084 22.9416 211.519 21.3186 212.351 19.8143C213.182 18.3495 214.369 17.162 215.834 16.3306C217.339 15.4993 219.002 15.0639 220.822 15.0639C222.643 15.0639 224.306 15.4993 225.771 16.3306C227.236 17.162 228.383 18.3495 229.254 19.8143C230.086 21.279 230.521 22.9416 230.521 24.8023C230.521 26.6628 230.086 28.2859 229.254 29.7901C228.423 31.2549 227.236 32.4425 225.771 33.2738C224.306 34.1448 222.643 34.5406 220.822 34.5406ZM221.139 37.7075C223.633 37.7075 225.849 37.1534 227.869 36.0449C229.888 34.9365 231.432 33.3926 232.579 31.4528C233.728 29.513 234.282 27.2961 234.282 24.8814C234.282 22.427 233.728 20.2498 232.579 18.31C231.432 16.3703 229.888 14.8264 227.869 13.7179C225.849 12.6095 223.633 12.0553 221.139 12.0553C218.646 12.0553 216.388 12.6095 214.369 13.7179C212.351 14.8264 210.807 16.3703 209.659 18.3495C208.511 20.3289 207.957 22.5061 207.957 24.921C207.957 27.3358 208.511 29.513 209.659 31.4924C210.807 33.4718 212.391 34.976 214.369 36.1241C216.388 37.1138 218.646 37.7075 221.139 37.7075ZM197.466 37.0741V15.1035H206.057V11.9761H185.353V15.1035H193.943V37.0741H197.466ZM174.308 37.7075C176.446 37.7075 178.267 37.3909 179.731 36.7575C181.196 36.124 182.304 35.2531 183.017 34.1843C183.729 33.0759 184.086 31.8883 184.086 30.5819C184.086 28.9984 183.689 27.7316 182.858 26.8211C182.027 25.8711 181.038 25.1981 179.889 24.723C178.742 24.2876 177.198 23.8125 175.298 23.3771C173.833 23.0604 172.684 22.7438 171.814 22.427C170.943 22.1104 170.231 21.7145 169.676 21.1603C169.082 20.606 168.806 19.933 168.806 19.0621C168.806 17.8745 169.319 16.9244 170.349 16.1723C171.378 15.4201 172.922 15.0639 174.941 15.0639C176.089 15.0639 177.277 15.2223 178.464 15.5785C179.652 15.9348 180.801 16.4494 181.869 17.1224L183.057 14.2325C182.027 13.52 180.801 12.9658 179.336 12.5699C177.911 12.174 176.446 11.9761 174.941 11.9761C172.803 11.9761 171.022 12.2928 169.557 12.9261C168.132 13.5595 167.024 14.4305 166.312 15.4993C165.598 16.5681 165.242 17.7954 165.242 19.1413C165.242 20.7644 165.638 22.0311 166.469 22.9813C167.301 23.9313 168.291 24.6439 169.478 25.0794C170.627 25.5148 172.171 25.9899 174.071 26.4253C175.574 26.7816 176.762 27.0983 177.593 27.3754C178.424 27.6525 179.137 28.0879 179.692 28.6025C180.246 29.1568 180.523 29.8298 180.523 30.7006C180.523 31.8883 180.008 32.7988 178.979 33.5114C177.949 34.2239 176.367 34.5801 174.308 34.5801C172.724 34.5801 171.181 34.303 169.676 33.7884C168.172 33.2343 166.944 32.5613 165.994 31.6904L164.648 34.501C165.678 35.4511 167.063 36.2033 168.806 36.797C170.587 37.3909 172.408 37.7075 174.308 37.7075ZM161.522 37.0741V33.9468H146.913V25.8315H159.463V22.7833H146.913V15.0639H161.007V11.9365H143.312V37.0345H161.522V37.0741ZM118.015 37.0741V18.3495L132.899 37.0741H135.789V11.9761H132.267V30.7006L117.382 11.9761H114.492V37.0741H118.015ZM108.237 37.0741V33.9468H93.6298V25.8315H106.179V22.7833H93.6298V15.0639H107.723V11.9365H90.0273V37.0345H108.237V37.0741ZM73.9947 37.7075C75.8157 37.7075 77.518 37.4304 79.1806 36.8763C80.8432 36.322 82.308 35.5303 83.5351 34.501V24.6835H80.0911V32.8779C78.4285 33.9468 76.4491 34.501 74.1926 34.501C72.2925 34.501 70.5902 34.0655 69.0463 33.2343C67.5025 32.4029 66.3148 31.2549 65.444 29.7506C64.5731 28.2859 64.1376 26.6233 64.1376 24.8023C64.1376 22.9416 64.5731 21.3186 65.444 19.8143C66.3148 18.3495 67.5025 17.2015 69.0463 16.3703C70.5902 15.5389 72.2925 15.143 74.2322 15.143C77.0825 15.143 79.5368 16.0931 81.5558 18.0329L83.7727 15.816C82.6246 14.5493 81.2391 13.5991 79.5765 12.9261C77.9138 12.2532 76.0928 11.9365 74.0738 11.9365C71.5007 11.9365 69.2047 12.4907 67.1462 13.5991C65.0877 14.7076 63.4646 16.2515 62.3166 18.1913C61.1686 20.1705 60.5747 22.3479 60.5747 24.8023C60.5747 27.2566 61.1686 29.4339 62.3166 31.3736C63.4646 33.3134 65.0877 34.8573 67.1462 35.9658C69.1651 37.1138 71.4612 37.7075 73.9947 37.7075Z"
    fill="black" />
  <defs>
    <linearGradient id="paint0_linear_3_1970" x1="46.0506" y1="25" x2="-23.2819" y2="25" gradientUnits="userSpaceOnUse">
      <stop stop-color="#076AB3" />
      <stop offset="1" />
    </linearGradient>
  </defs>
</svg>